<mxfile host="app.diagrams.net" modified="2023-09-25T14:18:56.447Z" agent="Mozilla/5.0 (Macintosh; Intel Mac OS X 10_15_7) AppleWebKit/537.36 (KHTML, like Gecko) Chrome/117.0.0.0 Safari/537.36 Edg/117.0.2045.40" etag="yDa-j6UCPC2R9xhPS9ZF" version="21.7.0" type="device">
  <diagram name="Page-1" id="iS32VbsqM3L2fWXcKdIH">
    <mxGraphModel dx="2026" dy="1188" grid="1" gridSize="10" guides="1" tooltips="1" connect="1" arrows="1" fold="1" page="1" pageScale="1" pageWidth="827" pageHeight="1169" math="0" shadow="0">
      <root>
        <mxCell id="0" />
        <mxCell id="1" parent="0" />
        <mxCell id="1IHFhsbRhsIPMtk3B3hj-8" style="edgeStyle=orthogonalEdgeStyle;rounded=0;orthogonalLoop=1;jettySize=auto;html=1;entryX=0.5;entryY=0;entryDx=0;entryDy=0;fillColor=#f5f5f5;strokeColor=#666666;" edge="1" parent="1" source="1IHFhsbRhsIPMtk3B3hj-1" target="1IHFhsbRhsIPMtk3B3hj-17">
          <mxGeometry relative="1" as="geometry" />
        </mxCell>
        <mxCell id="1IHFhsbRhsIPMtk3B3hj-1" value="Inputs in the interface" style="rounded=0;whiteSpace=wrap;html=1;fillColor=#f5f5f5;fontColor=#333333;strokeColor=#666666;" vertex="1" parent="1">
          <mxGeometry x="260" y="130" width="120" height="60" as="geometry" />
        </mxCell>
        <mxCell id="1IHFhsbRhsIPMtk3B3hj-9" style="edgeStyle=orthogonalEdgeStyle;rounded=0;orthogonalLoop=1;jettySize=auto;html=1;entryX=1;entryY=0.5;entryDx=0;entryDy=0;fillColor=#f5f5f5;strokeColor=#666666;" edge="1" parent="1" source="1IHFhsbRhsIPMtk3B3hj-2" target="1IHFhsbRhsIPMtk3B3hj-5">
          <mxGeometry relative="1" as="geometry">
            <Array as="points">
              <mxPoint x="580" y="350" />
            </Array>
          </mxGeometry>
        </mxCell>
        <mxCell id="1IHFhsbRhsIPMtk3B3hj-2" value="Database" style="rounded=0;whiteSpace=wrap;html=1;fillColor=#f5f5f5;fontColor=#333333;strokeColor=#666666;" vertex="1" parent="1">
          <mxGeometry x="540" y="220" width="110" height="60" as="geometry" />
        </mxCell>
        <mxCell id="1IHFhsbRhsIPMtk3B3hj-4" value="Save the answers" style="text;html=1;align=center;verticalAlign=middle;whiteSpace=wrap;rounded=0;" vertex="1" parent="1">
          <mxGeometry x="410" y="210" width="120" height="30" as="geometry" />
        </mxCell>
        <mxCell id="1IHFhsbRhsIPMtk3B3hj-14" style="edgeStyle=orthogonalEdgeStyle;rounded=0;orthogonalLoop=1;jettySize=auto;html=1;entryX=0.5;entryY=0;entryDx=0;entryDy=0;fillColor=#f5f5f5;strokeColor=#666666;" edge="1" parent="1" source="1IHFhsbRhsIPMtk3B3hj-5" target="1IHFhsbRhsIPMtk3B3hj-11">
          <mxGeometry relative="1" as="geometry" />
        </mxCell>
        <mxCell id="1IHFhsbRhsIPMtk3B3hj-5" value="create_model_card" style="rounded=0;whiteSpace=wrap;html=1;fillColor=#f5f5f5;fontColor=#333333;strokeColor=#666666;" vertex="1" parent="1">
          <mxGeometry x="260" y="320" width="120" height="60" as="geometry" />
        </mxCell>
        <mxCell id="1IHFhsbRhsIPMtk3B3hj-7" value="Export as HTML" style="text;html=1;align=center;verticalAlign=middle;whiteSpace=wrap;rounded=0;" vertex="1" parent="1">
          <mxGeometry x="330" y="290" width="90" height="30" as="geometry" />
        </mxCell>
        <mxCell id="1IHFhsbRhsIPMtk3B3hj-10" value="Query" style="text;html=1;align=center;verticalAlign=middle;whiteSpace=wrap;rounded=0;" vertex="1" parent="1">
          <mxGeometry x="520" y="310" width="60" height="30" as="geometry" />
        </mxCell>
        <mxCell id="1IHFhsbRhsIPMtk3B3hj-16" value="" style="edgeStyle=orthogonalEdgeStyle;rounded=0;orthogonalLoop=1;jettySize=auto;html=1;fillColor=#f5f5f5;strokeColor=#666666;" edge="1" parent="1" source="1IHFhsbRhsIPMtk3B3hj-11" target="1IHFhsbRhsIPMtk3B3hj-15">
          <mxGeometry relative="1" as="geometry" />
        </mxCell>
        <mxCell id="1IHFhsbRhsIPMtk3B3hj-11" value="Population of the fields" style="rounded=0;whiteSpace=wrap;html=1;fillColor=#f5f5f5;fontColor=#333333;strokeColor=#666666;" vertex="1" parent="1">
          <mxGeometry x="260" y="430" width="120" height="60" as="geometry" />
        </mxCell>
        <mxCell id="1IHFhsbRhsIPMtk3B3hj-13" style="edgeStyle=orthogonalEdgeStyle;rounded=0;orthogonalLoop=1;jettySize=auto;html=1;fillColor=#f5f5f5;strokeColor=#666666;" edge="1" parent="1" source="1IHFhsbRhsIPMtk3B3hj-12" target="1IHFhsbRhsIPMtk3B3hj-11">
          <mxGeometry relative="1" as="geometry" />
        </mxCell>
        <mxCell id="1IHFhsbRhsIPMtk3B3hj-12" value="Core Library" style="rounded=0;whiteSpace=wrap;html=1;fillColor=#f5f5f5;fontColor=#333333;strokeColor=#666666;" vertex="1" parent="1">
          <mxGeometry x="530" y="430" width="120" height="60" as="geometry" />
        </mxCell>
        <mxCell id="1IHFhsbRhsIPMtk3B3hj-20" style="edgeStyle=orthogonalEdgeStyle;rounded=0;orthogonalLoop=1;jettySize=auto;html=1;entryX=0;entryY=0.5;entryDx=0;entryDy=0;fillColor=#f5f5f5;strokeColor=#666666;" edge="1" parent="1" target="1IHFhsbRhsIPMtk3B3hj-17">
          <mxGeometry relative="1" as="geometry">
            <mxPoint x="260" y="570" as="sourcePoint" />
            <mxPoint x="200" y="250" as="targetPoint" />
            <Array as="points">
              <mxPoint x="260" y="600" />
              <mxPoint x="180" y="600" />
              <mxPoint x="180" y="250" />
            </Array>
          </mxGeometry>
        </mxCell>
        <mxCell id="1IHFhsbRhsIPMtk3B3hj-15" value="Jinja template" style="whiteSpace=wrap;html=1;rounded=0;fillColor=#f5f5f5;fontColor=#333333;strokeColor=#666666;" vertex="1" parent="1">
          <mxGeometry x="260" y="570" width="120" height="60" as="geometry" />
        </mxCell>
        <mxCell id="1IHFhsbRhsIPMtk3B3hj-18" style="edgeStyle=orthogonalEdgeStyle;rounded=0;orthogonalLoop=1;jettySize=auto;html=1;entryX=0;entryY=0.5;entryDx=0;entryDy=0;fillColor=#f5f5f5;strokeColor=#666666;" edge="1" parent="1" source="1IHFhsbRhsIPMtk3B3hj-17" target="1IHFhsbRhsIPMtk3B3hj-2">
          <mxGeometry relative="1" as="geometry" />
        </mxCell>
        <mxCell id="1IHFhsbRhsIPMtk3B3hj-19" style="edgeStyle=orthogonalEdgeStyle;rounded=0;orthogonalLoop=1;jettySize=auto;html=1;exitX=0.5;exitY=1;exitDx=0;exitDy=0;entryX=0.5;entryY=0;entryDx=0;entryDy=0;fillColor=#f5f5f5;strokeColor=#666666;" edge="1" parent="1" source="1IHFhsbRhsIPMtk3B3hj-17" target="1IHFhsbRhsIPMtk3B3hj-5">
          <mxGeometry relative="1" as="geometry" />
        </mxCell>
        <mxCell id="1IHFhsbRhsIPMtk3B3hj-22" style="edgeStyle=orthogonalEdgeStyle;rounded=0;orthogonalLoop=1;jettySize=auto;html=1;exitX=0;exitY=0.25;exitDx=0;exitDy=0;fillColor=#f5f5f5;strokeColor=#666666;" edge="1" parent="1" source="1IHFhsbRhsIPMtk3B3hj-17">
          <mxGeometry relative="1" as="geometry">
            <mxPoint x="140" y="235" as="targetPoint" />
          </mxGeometry>
        </mxCell>
        <mxCell id="1IHFhsbRhsIPMtk3B3hj-17" value="Views" style="rounded=0;whiteSpace=wrap;html=1;fillColor=#f5f5f5;fontColor=#333333;strokeColor=#666666;" vertex="1" parent="1">
          <mxGeometry x="260" y="220" width="120" height="60" as="geometry" />
        </mxCell>
        <mxCell id="1IHFhsbRhsIPMtk3B3hj-25" style="edgeStyle=orthogonalEdgeStyle;rounded=0;orthogonalLoop=1;jettySize=auto;html=1;exitX=0.5;exitY=0;exitDx=0;exitDy=0;fillColor=#f5f5f5;strokeColor=#666666;" edge="1" parent="1" source="1IHFhsbRhsIPMtk3B3hj-23">
          <mxGeometry relative="1" as="geometry">
            <mxPoint x="80" y="160" as="targetPoint" />
          </mxGeometry>
        </mxCell>
        <mxCell id="1IHFhsbRhsIPMtk3B3hj-23" value="Browser" style="rounded=0;whiteSpace=wrap;html=1;fillColor=#f5f5f5;fontColor=#333333;strokeColor=#666666;" vertex="1" parent="1">
          <mxGeometry x="20" y="210" width="120" height="60" as="geometry" />
        </mxCell>
        <mxCell id="1IHFhsbRhsIPMtk3B3hj-24" value="html file" style="text;html=1;align=center;verticalAlign=middle;whiteSpace=wrap;rounded=0;" vertex="1" parent="1">
          <mxGeometry x="190" y="570" width="60" height="30" as="geometry" />
        </mxCell>
        <mxCell id="1IHFhsbRhsIPMtk3B3hj-26" value="model_card.html" style="text;html=1;align=center;verticalAlign=middle;whiteSpace=wrap;rounded=0;fillColor=#d5e8d4;strokeColor=#82b366;" vertex="1" parent="1">
          <mxGeometry x="25" y="120" width="110" height="30" as="geometry" />
        </mxCell>
      </root>
    </mxGraphModel>
  </diagram>
</mxfile>
